# xmcd
#
# Track frame offsets: 
#        150
#        17911
#        33920
#        48675
#        68862
#        83636
#        100038
#        116641
#        133322
#        150683
#        171022
#        186904
#        200417
#        215817
#        227879
#        243377
#        257232
#        271873
#        283833
#        300117
#
# Disc length: 4201 seconds
#
# Revision: 0
# Processed by: cddbd v1.5.2PL0 Copyright (c) Steve Scherf et al.
# Submitted via: ExactAudioCopy v1.1
#
DISCID=21106714
DTITLE=Various Artist - 100 x Zomer 2017 - CD 1
DYEAR=2017
DGENRE=Pop
TTITLE0=Katy Perry Feat. Skip Marley - Chained To The Rhythm
TTITLE1=Jax Jones Feat. RAYE - You Don't Know Me
TTITLE2=Starley - Call On Me Ryan (Riback Remix)
TTITLE3=The Weeknd Feat. Daft Punk - I Feel It Coming
TTITLE4=Martin Garrix Feat. Bebe Rexha - In The Name Of Love
TTITLE5=JP Cooper - September Song
TTITLE6=Broederliefde - Jungle
TTITLE7=Sean Paul Feat. Dua Lipa - No Lie
TTITLE8=Alessia Cara - Scars To Your Beautiful
TTITLE9=Mark Ronson Feat. Bruno Mars - Uptown Funk
TTITLE10=Shawn Mendes - Mercy
TTITLE11=OneRepublic - Wherever I Go
TTITLE12=Kraantje Pappie Feat. Bizzey - De Manier
TTITLE13=Sam Feldt, Lucas and Steve Feat. Wulf - Summer On You
TTITLE14=Walking On Cars - Speeding Cars
TTITLE15=Tiësto Feat. Bright Sparks - On My Way
TTITLE16=The Vamps Feat. Matoma - All Night
TTITLE17=Blue Feat. Stevie Wonder and Angie Stone - Signed, Sealed, Deli
TTITLE17=vered I'm Yours
TTITLE18=Fifth Harmony Feat. Ty Dolla $ign - Work From Home
TTITLE19=Bob Marley Feat. Lvndscape and Bolier - Is This Love (Remix)
EXTD=
EXTT0=
EXTT1=
EXTT2=
EXTT3=
EXTT4=
EXTT5=
EXTT6=
EXTT7=
EXTT8=
EXTT9=
EXTT10=
EXTT11=
EXTT12=
EXTT13=
EXTT14=
EXTT15=
EXTT16=
EXTT17=
EXTT18=
EXTT19=
PLAYORDER=
